<svg width="22" height="22" viewBox="0 0 22 22" fill="none" xmlns="http://www.w3.org/2000/svg">
<path d="M20.781 6.12811C21.333 8.07211 21.237 9.99211 20.757 11.5041C20.253 13.0401 19.245 14.1201 17.997 14.4801C17.805 14.5521 17.685 14.5521 17.517 14.5521C17.445 14.5761 17.373 14.5761 17.301 14.5761C17.229 14.6001 17.133 14.6001 17.037 14.6001H8.87697L11.541 21.2001C11.565 21.3681 11.469 21.5121 11.373 21.6081C11.277 21.7281 11.085 21.8001 10.965 21.8001H7.34097C7.22097 21.8001 7.02897 21.7281 6.93297 21.6081C6.83697 21.5121 6.74097 21.3681 6.76497 21.2001L5.56497 14.6001H4.10097L4.07697 14.5761C3.47697 14.6481 2.78097 14.3601 2.22897 13.8321C1.67697 13.3041 1.17297 12.5361 0.956966 11.5761C0.668966 10.6161 0.716966 9.70411 0.932966 8.93611C1.14897 8.19211 1.62897 7.64011 2.20497 7.37611L2.22897 7.35211L13.029 0.872113C13.149 0.800113 13.245 0.752113 13.317 0.680113C13.389 0.632113 13.485 0.584113 13.605 0.536113C13.797 0.440113 13.941 0.392113 14.205 0.320113C15.453 -0.039887 16.893 0.440113 18.069 1.49611C19.245 2.55211 20.277 4.18411 20.781 6.12811ZM17.685 13.3041H17.661C18.141 13.1841 18.549 12.8961 18.909 12.4641C19.605 11.6241 19.941 10.3521 19.941 8.81611C19.941 8.04811 19.821 7.25611 19.605 6.44011C19.197 4.80811 18.381 3.44011 17.469 2.55211C16.557 1.66411 15.453 1.23211 14.517 1.49611C13.533 1.76011 12.837 2.64811 12.477 3.89611C12.093 5.14411 12.141 6.72811 12.549 8.36011C13.005 9.99211 13.749 11.3601 14.709 12.2481C15.645 13.1361 16.653 13.5681 17.685 13.3041ZM14.637 4.80811C14.901 4.76011 15.141 4.78411 15.381 4.85611C15.837 5.04811 16.293 5.43211 16.605 6.05611C16.917 6.68011 17.109 7.49611 17.109 8.19211C17.109 8.55211 17.061 8.86411 16.965 9.15211C16.749 9.72811 16.437 10.1601 15.933 10.2801C15.525 10.4001 14.973 10.2081 14.565 9.80011C14.157 9.39211 13.797 8.76811 13.629 8.00011C13.413 7.25611 13.485 6.51211 13.653 5.93611C13.821 5.36011 14.229 4.92811 14.637 4.80811Z" fill="black"/>
</svg>
