<svg width="18" height="24" viewBox="0 0 18 24" fill="none" xmlns="http://www.w3.org/2000/svg">
<path d="M0.599609 24H17.3996V0H0.599609V24ZM5.39961 3.6H2.99961V1.2H5.39961V3.6ZM10.1996 3.6H7.79961V1.2H10.1996V3.6ZM14.9996 3.6H12.5996V1.2H14.9996V3.6ZM5.39961 7.2H2.99961V4.8H5.39961V7.2ZM10.1996 7.2H7.79961V4.8H10.1996V7.2ZM14.9996 7.2H12.5996V4.8H14.9996V7.2ZM5.39961 10.8H2.99961V8.4H5.39961V10.8ZM10.1996 10.8H7.79961V8.4H10.1996V10.8ZM14.9996 10.8H12.5996V8.4H14.9996V10.8ZM5.39961 14.4H2.99961V12H5.39961V14.4ZM10.1996 14.4H7.79961V12H10.1996V14.4ZM14.9996 14.4H12.5996V12H14.9996V14.4ZM10.1996 22.8H2.99961V15.6H10.1996V22.8ZM14.9996 18H12.5996V15.6H14.9996V18ZM14.9996 21.6H12.5996V19.2H14.9996V21.6Z" fill="black"/>
</svg>
