<svg width="22" height="21" viewBox="0 0 22 21" fill="none" xmlns="http://www.w3.org/2000/svg">
<path d="M6.19922 13.5999H16.9992C17.6592 13.5999 18.1992 14.1399 18.1992 14.7999C18.1992 15.4599 17.6592 15.9999 16.9992 15.9999H4.99922C4.33922 15.9999 3.79922 15.4599 3.79922 14.7999V2.7999H1.39922C0.739219 2.7999 0.199219 2.2599 0.199219 1.5999C0.199219 0.939902 0.739219 0.399902 1.39922 0.399902H4.99922C5.65922 0.399902 6.19922 0.939902 6.19922 1.5999V3.9999H21.7992L16.9992 12.3999H6.19922V13.5999ZM5.59922 17.1999C6.59522 17.1999 7.39922 18.0039 7.39922 18.9999C7.39922 19.9959 6.59522 20.7999 5.59922 20.7999C4.60322 20.7999 3.79922 19.9959 3.79922 18.9999C3.79922 18.0039 4.60322 17.1999 5.59922 17.1999ZM16.3992 17.1999C17.3952 17.1999 18.1992 18.0039 18.1992 18.9999C18.1992 19.9959 17.3952 20.7999 16.3992 20.7999C15.4032 20.7999 14.5992 19.9959 14.5992 18.9999C14.5992 18.0039 15.4032 17.1999 16.3992 17.1999Z" fill="#1F2937"/>
</svg>
